<?xml version="1.0" standalone="no"?>
<!DOCTYPE svg PUBLIC "-//W3C//DTD SVG 20010904//EN"
 "http://www.w3.org/TR/2001/REC-SVG-20010904/DTD/svg10.dtd">
<svg version="1.0" xmlns="http://www.w3.org/2000/svg"
 width="500.000000pt" height="500.000000pt" viewBox="0 0 500.000000 500.000000"
 preserveAspectRatio="xMidYMid meet">
<metadata>
Created by potrace 1.10, written by Peter Selinger 2001-2011
</metadata>
<g transform="translate(0.000000,500.000000) scale(0.100000,-0.100000)"
fill="#000000" stroke="none">
<path d="M2050 4510 c-306 -38 -572 -162 -797 -374 -276 -260 -423 -601 -423
-983 0 -158 22 -304 66 -435 34 -104 126 -284 189 -373 60 -84 208 -233 293
-295 177 -128 403 -224 602 -256 65 -10 373 -14 385 -5 6 5 37 11 70 14 81 8
259 68 368 123 147 74 213 121 360 260 58 54 197 233 197 252 0 6 4 12 9 14
14 5 107 207 126 273 97 337 95 557 -7 875 -11 36 -45 112 -74 170 -191 374
-572 655 -984 724 -123 20 -286 27 -380 16z m77 -36 l21 -6 -26 -50 c-32 -61
-52 -75 -122 -82 -75 -7 -112 -15 -126 -27 -6 -5 -23 -10 -38 -11 -14 -1 -26
-6 -26 -10 0 -4 -9 -8 -20 -8 -23 0 -72 -21 -82 -35 -4 -5 -8 -6 -8 -1 0 5 -7
3 -15 -4 -8 -7 -15 -9 -15 -5 0 5 -8 -2 -19 -13 -10 -12 -25 -22 -34 -22 -8 0
-28 -11 -44 -23 -39 -33 -79 -41 -106 -22 -12 8 -29 15 -37 15 -9 0 -25 7 -36
15 -18 14 -18 16 -2 25 9 6 24 17 32 25 8 8 19 15 24 15 5 0 17 9 27 20 10 11
21 17 25 15 4 -3 13 2 20 10 7 8 18 15 25 15 7 0 18 6 24 13 6 8 30 19 53 26
24 7 50 19 58 26 25 22 243 84 322 91 40 3 75 8 77 10 6 5 22 5 48 -2z m263
-10 c109 -12 307 -72 346 -105 7 -6 18 -8 23 -5 5 4 12 2 16 -4 3 -5 23 -17
43 -27 46 -21 139 -80 170 -107 l23 -20 -58 -27 -58 -27 -50 25 c-27 14 -62
34 -76 44 -60 42 -273 115 -369 126 -94 10 -96 11 -134 71 -36 57 -36 57 -14
64 13 4 37 5 53 3 17 -3 55 -7 85 -11z m-157 -69 c32 -65 41 -75 64 -77 171
-9 402 -89 537 -185 l49 -35 73 38 c41 21 76 35 79 32 3 -3 -2 -21 -10 -41 -8
-20 -15 -47 -15 -60 0 -31 -42 -168 -87 -282 -47 -122 -90 -196 -164 -284 -57
-67 -60 -73 -35 -67 25 6 43 23 109 101 71 86 172 343 177 450 0 17 78 -66
134 -145 100 -139 175 -306 207 -466 l12 -60 84 -35 c47 -19 85 -38 86 -42 3
-13 -135 -71 -264 -111 l-117 -36 -51 -71 c-29 -39 -54 -69 -57 -66 -5 5 -54
-40 -54 -50 0 -3 8 -2 17 1 15 6 14 4 -2 -14 -10 -11 -25 -18 -32 -16 -13 5
-87 -58 -93 -79 -7 -26 -15 -39 -46 -72 -19 -20 -34 -42 -34 -49 0 -8 -4 -14
-10 -14 -5 0 -10 -7 -10 -16 0 -8 -4 -12 -10 -9 -5 3 -10 2 -10 -3 0 -5 -16
-27 -35 -48 -19 -21 -35 -35 -35 -31 0 12 -77 -77 -105 -122 -22 -36 -47 -129
-46 -176 0 -19 8 -70 16 -100 4 -16 11 -47 16 -68 6 -21 14 -35 18 -32 5 3 11
-2 15 -10 3 -8 17 -15 32 -15 41 0 221 96 304 163 88 71 210 195 210 213 0 7
3 14 8 16 17 7 142 206 142 225 0 3 7 19 14 36 20 42 58 157 61 182 2 11 8 38
14 60 6 22 11 77 11 122 0 73 2 84 22 97 12 9 30 16 40 16 10 0 18 4 18 9 0 5
11 11 24 13 23 5 25 2 28 -36 4 -61 -19 -264 -36 -316 -9 -25 -18 -59 -21 -76
-2 -17 -12 -44 -20 -60 -8 -16 -18 -44 -21 -61 -4 -19 -11 -30 -17 -26 -6 4
-7 1 -3 -6 5 -7 0 -18 -10 -26 -11 -8 -16 -15 -12 -15 10 0 -44 -102 -76 -144
-14 -19 -26 -38 -26 -42 0 -7 -37 -52 -101 -124 -22 -25 -43 -50 -47 -55 -13
-19 -119 -105 -130 -105 -5 0 -12 -7 -16 -15 -3 -8 -12 -15 -21 -15 -8 0 -15
-4 -15 -10 0 -5 -7 -10 -16 -10 -8 0 -12 -4 -9 -10 3 -5 0 -10 -7 -10 -7 0
-37 -16 -66 -35 -32 -20 -61 -31 -70 -28 -10 4 -14 2 -10 -2 8 -8 -107 -62
-152 -71 -13 -3 -27 -9 -30 -13 -3 -5 -45 -16 -94 -25 -49 -9 -94 -20 -100
-25 -15 -12 -354 -13 -376 -1 -10 5 -36 12 -57 15 -52 8 -133 26 -163 36 -14
5 -35 11 -47 13 -28 6 -122 46 -153 65 -8 6 -27 16 -41 23 -60 30 -115 62
-124 72 -5 7 -30 25 -55 41 -56 37 -230 210 -250 250 -8 17 -22 37 -32 45 -20
18 -94 141 -104 172 -4 13 -10 25 -13 28 -15 12 -74 174 -79 215 -2 25 -8 45
-12 45 -13 0 -34 181 -33 285 2 205 18 311 73 470 40 114 55 146 65 138 4 -5
5 -3 2 3 -14 25 103 202 202 306 98 104 120 123 149 124 26 1 106 -37 165 -78
29 -20 30 -20 15 -2 -10 11 -18 23 -18 26 0 7 116 75 180 106 106 52 258 90
382 96 18 1 31 17 62 79 21 42 42 77 45 77 4 0 23 -34 44 -75z m938 -338 c87
-97 107 -122 145 -187 20 -36 40 -67 43 -70 13 -11 41 -69 41 -84 0 -9 4 -16
9 -16 5 0 11 -8 14 -17 3 -10 17 -49 31 -88 14 -38 26 -79 26 -91 0 -11 3 -24
7 -28 10 -10 32 -113 32 -155 1 -32 0 -33 -31 -27 -18 3 -35 11 -39 17 -3 6
-9 10 -13 10 -19 -3 -26 1 -37 21 -15 28 -39 130 -33 140 3 5 0 8 -5 8 -6 0
-11 11 -11 23 0 13 -3 27 -7 31 -5 4 -8 11 -9 14 -1 12 -22 59 -64 144 -22 45
-40 85 -40 89 0 4 -20 29 -45 55 -25 27 -45 52 -45 56 0 4 -23 31 -50 60 -49
51 -50 54 -46 103 2 28 5 60 5 72 l1 22 37 -24 c20 -14 58 -49 84 -78z m196
-1005 c-24 -329 -200 -645 -473 -848 -79 -58 -235 -144 -263 -144 -14 0 -22
15 -34 58 -29 108 -41 208 -26 218 5 3 9 14 9 25 0 34 68 125 142 192 38 34
85 87 105 117 20 30 49 74 65 98 16 24 25 49 22 55 -4 7 -4 9 1 5 9 -9 37 11
30 21 -2 4 3 8 11 8 10 0 11 -4 4 -11 -5 -5 -10 -14 -10 -18 0 -5 22 13 50 39
27 27 68 65 90 85 21 20 48 54 59 75 17 35 26 41 93 61 41 12 83 29 94 37 34
26 37 17 31 -73z"/>
<path d="M2258 4273 c-43 -46 -58 -87 -57 -155 0 -52 2 -60 12 -45 7 10 20 28
29 39 11 13 15 31 12 56 -2 25 -1 32 5 23 5 -8 7 -21 4 -30 -4 -14 -3 -14 6
-1 6 8 11 33 11 55 l1 40 15 -25 15 -25 -5 34 c-3 18 -6 40 -6 47 0 21 -14 17
-42 -13z"/>
<path d="M2075 4268 c-2 -7 -6 -73 -7 -146 l-3 -132 44 0 c40 0 43 2 37 23 -3
12 -6 77 -6 145 l0 122 -30 0 c-17 0 -33 -6 -35 -12z"/>
<path d="M2416 4224 c-69 -22 -89 -37 -157 -120 -67 -84 -64 -88 42 -53 69 22
129 55 129 70 0 12 -10 11 -49 -2 -17 -6 -31 -15 -31 -21 0 -5 -6 -8 -12 -5
-7 2 -28 -2 -46 -10 -31 -13 -33 -12 -30 3 2 10 8 18 13 18 6 0 21 13 33 28
13 15 31 28 40 28 10 0 32 9 50 20 19 12 41 20 50 18 18 -2 62 22 62 34 0 12
-40 8 -94 -8z"/>
<path d="M2478 4180 c-11 -16 -25 -27 -29 -24 -13 8 -21 -16 -10 -30 6 -7 8
-16 4 -19 -3 -4 -1 -7 5 -7 6 0 14 5 17 10 3 6 1 10 -5 10 -6 0 -8 5 -5 10 4
6 11 7 17 4 6 -4 21 6 34 22 28 34 29 40 9 48 -9 3 -23 -6 -37 -24z"/>
<path d="M1337 4152 c7 -4 15 -37 18 -72 5 -60 4 -67 -19 -92 -14 -16 -30 -28
-36 -28 -5 0 -10 -6 -10 -14 0 -7 -7 -19 -15 -26 -8 -7 -12 -16 -9 -21 3 -5 1
-8 -4 -7 -11 4 -62 -55 -62 -72 0 -6 -5 -8 -11 -4 -7 4 -10 1 -7 -6 2 -8 -4
-22 -14 -32 -10 -10 -16 -23 -13 -27 2 -5 -1 -11 -9 -14 -7 -3 -19 -26 -27
-51 -7 -25 -17 -46 -21 -46 -9 0 -38 -64 -44 -99 -3 -13 -9 -32 -14 -42 -6
-10 -10 -29 -10 -43 0 -14 -4 -28 -10 -31 -5 -3 -10 -21 -10 -39 0 -37 -24
-67 -69 -86 -17 -7 -31 -16 -31 -21 0 -13 6 -12 66 17 36 17 56 33 59 47 3 12
11 55 19 95 27 134 130 338 229 457 84 99 95 109 114 93 15 -11 16 -11 9 7 -4
11 -12 46 -18 78 -10 57 -28 87 -51 87 -9 0 -9 -2 0 -8z"/>
<path d="M1560 4063 c0 -5 14 -17 30 -27 17 -9 27 -22 24 -28 -5 -7 -2 -8 6
-3 7 4 16 2 21 -6 4 -8 12 -14 16 -14 26 -2 77 -41 104 -82 49 -71 81 -101
133 -124 52 -23 149 -50 155 -43 3 2 -6 15 -18 28 -17 18 -30 23 -51 19 -17
-2 -40 3 -55 13 -14 9 -25 12 -25 8 0 -5 -11 2 -24 16 -13 14 -33 32 -45 40
-11 8 -21 20 -21 27 0 27 98 -17 154 -68 21 -20 36 -24 36 -11 0 4 -20 28 -45
54 -35 37 -59 51 -111 68 -36 11 -72 20 -79 20 -7 0 -46 22 -87 49 -94 61
-118 74 -118 64z"/>
<path d="M2780 4032 c-123 -82 -188 -134 -255 -202 -48 -49 -61 -67 -43 -58
16 7 28 16 28 20 0 7 21 27 102 100 17 15 40 30 50 34 10 3 18 9 18 13 0 5 36
32 80 60 74 49 102 72 83 70 -4 0 -33 -17 -63 -37z"/>
<path d="M2374 4019 c3 -24 11 -104 17 -177 8 -83 16 -131 22 -129 16 5 8 203
-9 252 -7 22 -14 50 -14 62 0 12 -5 25 -11 29 -8 5 -10 -6 -5 -37z"/>
<path d="M2231 4011 c-23 -6 -22 -7 15 -24 83 -36 168 -20 94 18 -30 16 -68
18 -109 6z"/>
<path d="M1972 3943 c3 -43 13 -72 38 -112 32 -52 34 -53 43 -30 12 34 2 83
-29 146 -37 73 -58 71 -52 -4z"/>
<path d="M2078 3881 c2 -48 2 -113 -2 -144 -7 -50 -9 -55 -36 -61 -33 -6 -70
-38 -70 -61 0 -22 36 -51 79 -63 47 -15 158 -16 166 -2 3 6 19 10 36 10 31 0
109 30 109 42 0 11 -14 10 -42 -1 -52 -21 -66 -24 -145 -28 -64 -4 -87 -1
-105 11 -22 16 -22 16 -1 16 30 0 80 31 92 56 15 34 57 36 148 7 77 -25 82
-28 78 -51 -2 -13 -10 -31 -17 -40 -12 -14 -10 -14 17 -8 37 9 65 34 65 57 0
24 -58 56 -130 71 l-60 12 0 122 c0 118 -1 122 -22 128 -46 12 -50 9 -42 -39
3 -25 3 -84 -1 -130 -6 -81 -8 -85 -30 -85 l-24 0 2 135 2 135 -36 0 -36 0 5
-89z m162 -171 c0 -5 -7 -10 -15 -10 -8 0 -15 5 -15 10 0 6 7 10 15 10 8 0 15
-4 15 -10z m-105 -50 c0 -17 -68 -43 -99 -38 -34 5 -28 25 11 41 46 20 88 18
88 -3z"/>
<path d="M1435 3900 c37 -144 72 -233 88 -223 6 3 7 1 3 -6 -14 -22 115 -211
145 -211 5 0 1 8 -8 18 -34 35 -63 76 -63 89 0 7 -4 13 -10 13 -5 0 -13 16
-19 35 -5 19 -18 47 -29 62 -11 15 -30 57 -43 93 -13 36 -29 76 -36 90 -7 14
-13 32 -13 41 0 8 -6 24 -14 35 -13 16 -13 12 -1 -36z"/>
<path d="M1903 3708 c-32 -15 -29 -25 10 -32 38 -7 127 17 127 35 0 13 -110
10 -137 -3z"/>
<path d="M2050 3496 c-30 -7 -66 -18 -80 -23 -32 -14 -70 -50 -70 -66 0 -51
100 -96 230 -103 68 -4 81 -3 66 7 -15 9 -16 13 -5 20 11 7 11 9 -3 9 -9 0
-20 -5 -23 -10 -4 -6 -9 -9 -13 -6 -4 2 -30 6 -59 10 -68 8 -147 39 -151 60
-2 9 1 16 7 16 6 0 11 -4 11 -10 0 -15 76 -12 117 5 36 15 65 44 57 56 -8 14
58 28 109 23 74 -7 187 -35 187 -45 0 -5 3 -8 8 -8 18 3 32 -2 32 -11 0 -5 -7
-10 -16 -10 -14 0 -14 -3 -3 -16 10 -13 10 -19 0 -36 l-13 -21 32 19 c18 10
38 27 44 36 21 35 -56 86 -162 107 -70 14 -233 13 -302 -3z m60 -26 c13 -9 12
-12 -5 -25 -46 -36 -145 -43 -145 -11 0 29 118 57 150 36z"/>
<path d="M1430 3431 c-118 -21 -187 -39 -274 -70 -71 -25 -92 -41 -53 -41 20
0 27 -5 27 -19 0 -22 83 -166 88 -153 1 5 -16 41 -38 80 -45 78 -46 108 -5
118 13 3 32 1 42 -5 22 -11 96 -106 106 -133 4 -10 11 -18 17 -18 6 0 8 5 4
12 -4 6 -3 8 4 5 5 -4 8 -16 5 -27 -3 -11 -1 -20 5 -20 6 0 28 -17 49 -37 60
-59 203 -161 203 -146 0 5 -10 19 -23 33 -12 14 -35 42 -51 63 -19 25 -36 37
-52 37 -16 0 -44 19 -82 57 -31 31 -60 56 -64 55 -9 -2 -43 63 -52 101 -3 15
-2 37 4 48 15 27 61 22 75 -8 13 -31 27 -29 15 2 -10 27 -8 30 35 39 62 12 92
15 175 18 79 2 87 1 111 -22 44 -43 116 -100 172 -135 50 -32 28 -8 -40 43
-38 27 -87 68 -111 91 -41 39 -47 42 -115 46 -46 3 -110 -2 -177 -14z m-160
-75 c0 -8 -4 -18 -10 -21 -5 -3 -10 -4 -10 -1 0 2 -3 11 -6 20 -4 11 -1 16 10
16 9 0 16 -6 16 -14z"/>
<path d="M2825 3441 c-28 -12 -7 -19 80 -25 39 -3 83 -7 100 -10 16 -2 51 -8
77 -11 28 -4 52 -14 57 -22 5 -10 15 -14 25 -10 9 4 15 3 12 -2 -7 -11 17 -21
52 -21 15 0 36 -7 46 -15 22 -17 46 -20 46 -6 0 10 -137 67 -197 83 -149 38
-265 53 -298 39z"/>
<path d="M2860 3319 c-14 -25 -36 -100 -45 -153 -8 -49 -52 -139 -64 -131 -5
2 -15 -3 -22 -13 -13 -15 -12 -16 4 -3 20 16 22 4 3 -21 -15 -20 -31 -25 -20
-6 4 7 3 8 -4 4 -7 -4 -12 -14 -12 -23 0 -8 -15 -33 -34 -55 -29 -33 -52 -78
-41 -78 2 0 13 15 24 33 11 19 46 54 77 78 30 24 86 85 123 134 65 86 68 93
75 160 l6 70 -20 -25 c-12 -15 -20 -40 -20 -65 0 -27 -8 -49 -25 -70 -26 -33
-31 -23 -15 35 30 116 36 150 29 150 -5 0 -13 -9 -19 -21z"/>
<path d="M1470 3314 c0 -3 4 -24 9 -47 6 -23 12 -54 15 -69 4 -15 12 -33 19
-40 7 -7 35 -44 61 -81 27 -37 66 -82 88 -100 22 -18 55 -45 74 -61 19 -15 34
-23 34 -17 0 6 -11 18 -25 27 -28 18 -66 67 -69 89 -1 8 -6 18 -11 22 -4 4 -5
2 -1 -4 4 -7 5 -13 2 -13 -12 0 -64 101 -75 148 -16 65 -31 67 -31 5 -1 -45
-2 -47 -16 -28 -8 11 -14 29 -13 40 1 11 -3 31 -9 45 -6 14 -16 40 -24 58 -11
27 -28 44 -28 26z"/>
<path d="M2093 3270 c-115 -13 -174 -30 -226 -63 -79 -53 -74 -108 14 -153 29
-14 76 -32 106 -40 79 -20 358 -36 424 -24 64 12 159 49 159 61 0 5 10 9 23 9
20 1 20 2 4 11 -13 8 -32 3 -80 -20 -101 -48 -329 -67 -373 -30 -8 7 -14 7
-14 1 0 -12 -187 31 -235 54 -38 18 -64 59 -48 75 8 8 20 5 41 -11 26 -19 38
-21 79 -16 100 15 141 47 134 104 -3 24 -2 24 101 21 57 -1 112 -6 124 -10 11
-4 43 -10 70 -13 95 -11 168 -41 161 -67 -3 -10 2 -20 10 -23 9 -4 13 -14 10
-26 -6 -23 3 -26 21 -8 31 31 2 82 -66 117 -83 42 -298 67 -439 51z m-6 -56
c2 -7 -11 -22 -28 -35 -26 -18 -46 -23 -103 -23 -64 -1 -71 1 -71 19 0 28 75
55 144 52 30 -1 56 -7 58 -13z"/>
<path d="M3074 3248 c-3 -12 -26 -41 -50 -66 -24 -24 -44 -48 -44 -52 0 -8
-34 -40 -42 -40 -4 0 -5 8 -3 18 2 9 4 23 4 30 1 7 6 10 11 7 6 -3 10 1 10 10
0 9 11 33 25 53 26 38 31 52 17 52 -5 0 -21 -24 -37 -52 -32 -62 -94 -147
-144 -200 -19 -21 -32 -40 -29 -43 11 -11 158 97 210 155 44 48 98 129 98 146
0 14 -20 0 -26 -18z"/>
<path d="M915 3220 c10 -11 26 -20 35 -20 23 0 38 -55 44 -165 11 -176 81
-381 188 -547 22 -35 43 -65 47 -68 3 -3 19 -23 36 -45 37 -50 63 -77 147
-147 68 -58 171 -128 188 -128 5 0 14 -8 19 -17 6 -10 11 -15 11 -11 0 3 27
-7 60 -23 33 -16 69 -29 79 -29 52 0 104 136 104 272 0 85 -32 152 -108 234
-139 147 -159 169 -169 188 -6 12 -24 40 -39 63 -15 24 -27 46 -27 51 0 4 -8
15 -17 23 -10 9 -33 33 -50 53 -18 20 -33 34 -33 31 0 -3 -18 13 -40 36 -22
23 -40 47 -40 52 0 6 -2 8 -5 5 -3 -3 -29 18 -58 47 -30 28 -58 50 -64 48 -6
-2 -31 5 -55 16 -72 33 -121 51 -125 47 -6 -6 80 -52 147 -77 40 -15 70 -35
84 -53 11 -16 61 -70 110 -120 53 -53 116 -132 154 -191 38 -60 102 -139 158
-196 108 -111 144 -174 144 -257 0 -68 -40 -232 -58 -239 -21 -8 -195 83 -282
147 -191 143 -326 324 -413 555 -32 84 -67 281 -67 374 0 73 1 72 -94 101 -28
9 -28 9 -11 -10z"/>
<path d="M1658 3169 c-10 -5 -18 -14 -18 -19 0 -5 13 -2 29 8 50 28 76 5 148
-127 29 -52 107 -164 128 -181 8 -7 12 -17 8 -23 -3 -6 -1 -7 5 -3 7 4 12 2
12 -6 0 -7 11 -22 23 -33 13 -11 29 -30 36 -42 6 -13 18 -23 25 -23 7 0 19
-12 27 -27 7 -16 24 -43 38 -61 22 -30 24 -41 21 -120 -3 -126 -4 -132 -14
-132 -5 0 -6 -3 -3 -6 3 -4 2 -15 -4 -26 -15 -28 -17 -47 -23 -204 -5 -135 -4
-141 18 -169 20 -25 31 -29 87 -33 55 -3 68 -1 93 19 l29 23 -6 157 c-4 116
-10 167 -23 195 -12 27 -18 71 -20 140 -3 124 8 149 111 257 110 114 167 186
179 225 11 33 0 27 -33 -18 -16 -22 -79 -93 -141 -158 -139 -145 -153 -172
-153 -302 1 -74 5 -107 21 -146 18 -41 22 -74 24 -201 3 -145 2 -152 -17 -157
-26 -7 -75 -7 -112 0 l-29 6 3 71 c1 40 3 115 4 167 1 52 7 106 14 120 32 65
36 227 7 293 -11 23 -59 85 -109 137 -142 150 -204 231 -217 283 -3 15 -11 27
-16 27 -5 0 -19 18 -30 40 -29 56 -77 76 -122 49z"/>
<path d="M1690 2889 c0 -5 4 -8 9 -4 6 3 18 -6 28 -20 10 -14 26 -36 36 -48
l18 -22 -12 25 c-13 29 -59 80 -71 80 -4 0 -8 -5 -8 -11z"/>
<path d="M2335 1698 c-11 -28 0 -291 12 -295 8 -3 11 16 10 63 l-2 67 87 4
c102 6 106 2 91 -77 -11 -53 -9 -62 12 -54 9 4 13 43 14 144 2 122 0 139 -13
134 -12 -4 -15 -18 -13 -55 2 -27 1 -53 -2 -57 -9 -14 -156 -23 -168 -11 -6 6
-9 36 -6 73 4 42 2 66 -6 70 -6 4 -13 1 -16 -6z"/>
<path d="M2700 1560 c-45 -77 -87 -143 -92 -146 -4 -3 -6 -10 -3 -15 14 -22
33 -5 54 46 21 51 25 55 56 55 18 0 52 3 76 6 43 6 45 5 62 -30 9 -20 17 -46
17 -56 0 -21 7 -24 28 -12 9 6 6 21 -13 60 -14 29 -42 92 -61 140 -20 48 -37
88 -39 90 -1 1 -39 -61 -85 -138z m106 27 c12 -28 20 -55 18 -59 -7 -10 -127
-10 -122 0 16 37 72 122 76 117 4 -3 16 -29 28 -58z"/>
<path d="M1052 1673 c-66 -32 -100 -105 -87 -183 17 -103 188 -121 246 -26 50
82 44 171 -14 206 -39 24 -100 25 -145 3z m112 -13 c37 -14 59 -64 53 -118 -9
-81 -65 -129 -137 -117 -79 13 -115 73 -91 148 26 77 102 115 175 87z"/>
<path d="M1318 1550 c-2 -103 0 -140 9 -140 7 0 13 18 15 42 3 39 6 42 38 50
45 11 100 71 100 110 0 17 -10 39 -25 53 -20 21 -34 25 -79 25 l-55 0 -3 -140z
m89 120 c40 -14 58 -53 41 -87 -14 -29 -51 -58 -85 -68 -22 -6 -23 -5 -23 73
0 99 4 103 67 82z"/>
<path d="M1653 1673 c-10 -26 -133 -235 -149 -254 -8 -9 -11 -19 -7 -22 16
-17 31 -3 52 48 21 51 25 55 56 55 18 0 52 3 76 6 43 6 45 5 62 -30 9 -20 17
-43 17 -51 0 -8 9 -15 20 -15 22 0 22 2 -25 100 -17 36 -42 91 -54 123 -24 59
-37 70 -48 40z m60 -145 c-5 -9 -123 -11 -123 -2 0 4 17 34 37 67 l37 61 27
-60 c14 -32 24 -62 22 -66z"/>
<path d="M1862 1549 l3 -144 78 0 c47 0 76 4 73 10 -1 5 -22 9 -46 7 -23 -2
-53 -1 -67 3 l-25 6 3 126 c3 96 1 127 -9 131 -10 3 -12 -27 -10 -139z"/>
<path d="M2219 1683 c-1 -5 0 -42 1 -84 2 -91 -16 -142 -60 -167 -16 -9 -30
-23 -30 -29 0 -21 18 -15 56 20 27 24 39 47 50 92 15 62 10 175 -7 175 -5 0
-9 -3 -10 -7z"/>
<path d="M3314 1681 c-2 -2 -4 -66 -4 -141 l0 -136 80 0 c46 1 80 5 80 11 0 6
-29 10 -68 10 l-67 0 0 60 0 59 53 -3 c42 -2 52 1 52 13 0 13 -8 14 -43 10
-56 -8 -72 9 -62 66 l7 42 64 -4 c35 -2 62 1 61 6 -2 9 -145 15 -153 7z"/>
<path d="M2976 1618 c-12 -139 -12 -208 1 -208 10 0 13 26 13 105 0 61 4 105
10 105 5 0 33 -28 61 -62 82 -99 136 -158 146 -158 4 0 8 63 8 140 1 106 -2
140 -12 140 -9 0 -13 -31 -15 -116 l-3 -115 -37 48 c-21 26 -56 68 -78 93 -23
25 -48 55 -57 68 -24 34 -31 27 -37 -40z"/>
<path d="M966 1353 c-3 -3 -3 -10 0 -14 3 -5 572 -9 1265 -9 1004 0 1260 3
1257 13 -4 9 -266 12 -1261 13 -691 1 -1258 0 -1261 -3z"/>
<path d="M1190 1268 c0 -2 -2 -61 -3 -132 -1 -96 1 -130 11 -134 9 -3 12 13
12 57 l0 61 76 0 75 0 -2 -57 c-2 -42 1 -58 10 -58 9 0 12 29 12 118 0 118
-13 167 -19 70 l-3 -53 -75 0 -74 0 0 65 c0 37 -4 65 -10 65 -5 0 -10 -1 -10
-2z"/>
<path d="M1558 1236 c-13 -25 -85 -148 -103 -177 -35 -57 -35 -57 -19 -63 9
-3 17 1 20 12 3 9 13 32 22 50 16 31 18 32 83 32 72 0 68 3 93 -74 5 -14 10
-16 18 -8 8 8 -4 43 -42 129 -29 65 -54 119 -55 121 -2 2 -9 -8 -17 -22z m32
-63 c11 -26 19 -51 17 -57 -5 -16 -97 -16 -97 0 0 11 51 103 57 104 1 0 11
-21 23 -47z"/>
<path d="M2112 1180 c-23 -46 -46 -88 -50 -92 -5 -5 -24 28 -43 73 -38 89 -59
111 -59 60 0 -17 -9 -72 -20 -122 -12 -51 -19 -94 -16 -96 13 -13 26 13 27 50
0 23 6 65 13 92 l12 50 27 -57 c15 -31 27 -61 27 -66 0 -5 6 -15 14 -21 12
-10 21 2 53 69 21 44 41 80 44 80 4 0 9 -28 13 -62 12 -105 18 -138 27 -138
13 0 10 40 -10 160 l-18 105 -41 -85z"/>
<path d="M2311 1164 c-30 -52 -64 -110 -77 -129 -17 -26 -19 -35 -9 -39 9 -3
22 12 37 42 l23 47 69 0 68 0 16 -40 c19 -50 20 -51 32 -39 9 9 -38 129 -80
206 -6 10 -10 25 -10 33 0 31 -17 12 -69 -81z m80 -6 l18 -46 -50 -4 c-28 -1
-52 -1 -55 1 -7 7 49 102 59 98 5 -1 18 -24 28 -49z"/>
<path d="M2914 1222 c-11 -20 -44 -77 -72 -126 -29 -49 -52 -93 -52 -98 0 -21
21 0 42 42 l23 45 70 0 70 0 13 -42 c8 -24 18 -43 22 -43 15 0 22 20 13 33 -5
7 -29 57 -53 112 -24 55 -46 103 -49 107 -3 4 -15 -10 -27 -30z m17 -112 c-25
-3 -50 -3 -54 1 -4 3 7 29 24 58 l33 52 21 -53 21 -53 -45 -5z"/>
<path d="M3190 1253 c-84 -30 -110 -63 -110 -135 1 -69 56 -118 133 -118 55 0
69 16 65 71 -5 64 -28 63 -28 -1 l0 -53 -41 7 c-86 14 -132 75 -106 139 27 62
80 82 167 62 31 -7 33 -6 20 8 -17 16 -76 28 -100 20z"/>
<path d="M964 1238 c-6 -9 7 -11 48 -8 l27 1 3 -110 c2 -61 7 -111 11 -111 5
0 10 48 10 108 l2 107 48 3 c26 2 47 7 47 11 0 11 -189 10 -196 -1z"/>
<path d="M1747 1243 c-3 -5 -7 -61 -8 -124 -1 -90 1 -115 12 -117 11 -2 14 21
13 118 -2 115 -5 142 -17 123z"/>
<path d="M2536 1229 c-34 -27 -34 -63 0 -86 48 -33 64 -53 64 -78 0 -31 -40
-59 -75 -53 -18 4 -25 1 -25 -10 0 -22 67 -9 96 19 42 39 29 92 -31 128 -54
31 -39 90 20 79 17 -4 25 -1 25 8 0 21 -44 17 -74 -7z"/>
<path d="M2705 1240 c-59 -23 -58 -72 3 -113 33 -22 42 -34 42 -57 0 -34 -31
-60 -72 -60 -16 0 -28 -5 -28 -11 0 -19 70 -2 97 23 18 17 23 31 21 57 -2 29
-11 41 -45 64 -62 41 -54 87 15 87 19 0 31 4 27 10 -7 12 -32 12 -60 0z"/>
<path d="M3364 1242 c-8 -4 -12 -49 -13 -124 l-2 -118 71 0 c50 0 70 4 70 13
0 9 -17 12 -57 12 l-58 0 -3 48 -3 47 45 0 c26 0 46 5 46 10 0 6 -18 10 -39
10 -48 0 -54 8 -45 56 l7 36 53 -4 c41 -4 54 -1 54 9 0 9 -16 13 -57 13 -32 0
-63 -4 -69 -8z"/>
</g>
</svg>
